<svg version="1.1" xmlns="http://www.w3.org/2000/svg" xmlns:xlink="http://www.w3.org/1999/xlink" width="581.36837" height="454.78788" viewBox="0,0,581.36837,454.78788"><g transform="translate(-256.99121,-97.23518)"><g data-paper-data="{&quot;isPaintingLayer&quot;:true}" fill-rule="nonzero" stroke="none" stroke-width="1" stroke-linecap="butt" stroke-linejoin="miter" stroke-miterlimit="10" stroke-dasharray="" stroke-dashoffset="0" style="mix-blend-mode: normal"><path d="M837.95559,225.62015c0,6.68593 -5.42247,12.107 -12.107,12.107h-103.82331c-6.68593,0 -12.10559,-5.42247 -12.10559,-12.107v-52.70941c0,-6.68593 5.41966,-12.10559 12.10559,-12.10559h103.82191c6.68875,0 12.107,5.41966 12.107,12.10559v52.70941z" fill="#9b9b9b"/><path d="M837.93519,275.99568c0,6.68593 -5.42247,12.107 -12.107,12.107h-103.82331c-6.68593,0 -12.10559,-5.42247 -12.10559,-12.107v-52.70941c0,-6.68593 5.41966,-12.10559 12.10559,-12.10559h103.82191c6.68875,0 12.107,5.41966 12.107,12.10559v52.70941z" fill="#9b9b9b"/><path d="M837.95692,316.25395c0,6.68593 -5.42247,12.107 -12.107,12.107h-103.82331c-6.68593,0 -12.10559,-5.42247 -12.10559,-12.107v-52.70941c0,-6.68593 5.41966,-12.10559 12.10559,-12.10559h103.82191c6.68875,0 12.107,5.41966 12.107,12.10559v52.70941z" fill="#9b9b9b"/><path d="M837.93652,366.62947c0,6.68593 -5.42247,12.107 -12.107,12.107h-103.82331c-6.68593,0 -12.10559,-5.42247 -12.10559,-12.107v-52.70941c0,-6.68593 5.41966,-12.10559 12.10559,-12.10559h103.82191c6.68875,0 12.107,5.41966 12.107,12.10559v52.70941z" fill="#9b9b9b"/><path d="M837.90707,398.90618c0,6.68593 -5.42247,12.107 -12.107,12.107h-103.82331c-6.68593,0 -12.10559,-5.42247 -12.10559,-12.107v-52.70941c0,-6.68593 5.41966,-12.10559 12.10559,-12.10559h103.82191c6.68875,0 12.107,5.41966 12.107,12.10559v52.70941z" fill="#9b9b9b"/><path d="M837.88668,449.28171c0,6.68593 -5.42247,12.107 -12.107,12.107h-103.82331c-6.68593,0 -12.10559,-5.42247 -12.10559,-12.107v-52.70941c0,-6.68593 5.41966,-12.10559 12.10559,-12.10559h103.82191c6.68875,0 12.107,5.41966 12.107,12.10559v52.70941z" fill="#9b9b9b"/><path d="M837.9084,489.53998c0,6.68593 -5.42247,12.107 -12.107,12.107h-103.82331c-6.68593,0 -12.10559,-5.42247 -12.10559,-12.107v-52.70941c0,-6.68593 5.41966,-12.10559 12.10559,-12.10559h103.82191c6.68875,0 12.107,5.41966 12.107,12.10559v52.70941z" fill="#9b9b9b"/><path d="M837.88801,539.9155c0,6.68593 -5.42247,12.107 -12.107,12.107h-103.82331c-6.68593,0 -12.10559,-5.42247 -12.10559,-12.107v-52.70941c0,-6.68593 5.41966,-12.10559 12.10559,-12.10559h103.82191c6.68875,0 12.107,5.41966 12.107,12.10559v52.70941z" fill="#9b9b9b"/><path d="M838.05618,163.05259c0,6.68593 -5.42247,12.107 -12.107,12.107h-103.82331c-6.68593,0 -12.10559,-5.42247 -12.10559,-12.107v-52.70941c0,-6.68593 5.41966,-12.10559 12.10559,-12.10559h103.82191c6.68875,0 12.107,5.41966 12.107,12.10559v52.70941z" fill="#9b9b9b"/><path d="M838.03579,213.42811c0,6.68593 -5.42247,12.107 -12.107,12.107h-103.82331c-6.68593,0 -12.10559,-5.42247 -12.10559,-12.107v-52.70941c0,-6.68593 5.41966,-12.10559 12.10559,-12.10559h103.82191c6.68875,0 12.107,5.41966 12.107,12.10559v52.70941z" fill="#9b9b9b"/><path d="M808.4415,116.8148c0,1.98125 -1.60685,3.58768 -3.58767,3.58768h-30.76605c-1.98124,0 -3.58726,-1.60685 -3.58726,-3.58768v-15.61943c0,-1.98125 1.60602,-3.58726 3.58726,-3.58726h30.76563c1.98208,0 3.58767,1.60601 3.58767,3.58726v15.61943z" fill="#353535"/><path d="M838.35958,116.88053c0,1.98125 -1.60685,3.58768 -3.58767,3.58768h-30.76605c-1.98124,0 -3.58726,-1.60685 -3.58726,-3.58768v-15.61943c0,-1.98125 1.60601,-3.58726 3.58726,-3.58726h30.76564c1.98208,0 3.58767,1.60601 3.58767,3.58726v15.61943z" fill="#353535"/><path d="M450.01164,225.62072c0,6.68593 -5.42247,12.107 -12.107,12.107h-103.82331c-6.68593,0 -12.10559,-5.42247 -12.10559,-12.107v-52.70941c0,-6.68593 5.41966,-12.10559 12.10559,-12.10559h103.82191c6.68875,0 12.107,5.41966 12.107,12.10559v52.70941z" fill="#9b9b9b"/><path d="M385.09602,225.52809c0,6.68593 -5.42247,12.107 -12.107,12.107h-103.82331c-6.68593,0 -12.10559,-5.42247 -12.10559,-12.107v-52.70941c0,-6.68593 5.41966,-12.10559 12.10559,-12.10559h103.82191c6.68875,0 12.107,5.41966 12.107,12.10559v52.70941z" fill="#9b9b9b"/><path d="M576.42018,225.53502c0,6.68593 -5.42247,12.107 -12.107,12.107h-103.82331c-6.68593,0 -12.10559,-5.42247 -12.10559,-12.107v-52.70941c0,-6.68593 5.41966,-12.10559 12.10559,-12.10559h103.82191c6.68875,0 12.107,5.41966 12.107,12.10559v52.70941z" fill="#9b9b9b"/><path d="M511.50456,225.44239c0,6.68593 -5.42247,12.107 -12.107,12.107h-103.82331c-6.68593,0 -12.10559,-5.42247 -12.10559,-12.107v-52.70941c0,-6.68593 5.41966,-12.10559 12.10559,-12.10559h103.82191c6.68875,0 12.107,5.41966 12.107,12.10559v52.70941z" fill="#9b9b9b"/><path d="M681.41527,225.53782c0,6.68593 -5.42247,12.107 -12.107,12.107h-103.82331c-6.68593,0 -12.10559,-5.42247 -12.10559,-12.107v-52.70941c0,-6.68593 5.41966,-12.10559 12.10559,-12.10559h103.82191c6.68875,0 12.107,5.41966 12.107,12.10559v52.70941z" fill="#9b9b9b"/><path d="M616.49966,225.44519c0,6.68593 -5.42247,12.107 -12.107,12.107h-103.82331c-6.68593,0 -12.10559,-5.42247 -12.10559,-12.107v-52.70941c0,-6.68593 5.41966,-12.10559 12.10559,-12.10559h103.82191c6.68875,0 12.107,5.41966 12.107,12.10559v52.70941z" fill="#9b9b9b"/><path d="M742.9082,225.35949c0,6.68593 -5.42247,12.107 -12.107,12.107h-103.82331c-6.68593,0 -12.10559,-5.42247 -12.10559,-12.107v-52.70941c0,-6.68593 5.41966,-12.10559 12.10559,-12.10559h103.82191c6.68875,0 12.107,5.41966 12.107,12.10559v52.70941z" fill="#9b9b9b"/><path d="M449.99124,275.99625c0,6.68593 -5.42247,12.107 -12.107,12.107h-103.82331c-6.68593,0 -12.10559,-5.42247 -12.10559,-12.107v-52.70941c0,-6.68593 5.41966,-12.10559 12.10559,-12.10559h103.82191c6.68875,0 12.107,5.41966 12.107,12.10559v52.70941z" fill="#9b9b9b"/><path d="M385.07562,275.90362c0,6.68593 -5.42247,12.107 -12.107,12.107h-103.82331c-6.68593,0 -12.10559,-5.42247 -12.10559,-12.107v-52.70941c0,-6.68593 5.41966,-12.10559 12.10559,-12.10559h103.82191c6.68875,0 12.107,5.41966 12.107,12.10559v52.70941z" fill="#9b9b9b"/><path d="M576.39978,275.91055c0,6.68593 -5.42247,12.107 -12.107,12.107h-103.82331c-6.68593,0 -12.10559,-5.42247 -12.10559,-12.107v-52.70941c0,-6.68593 5.41966,-12.10559 12.10559,-12.10559h103.82191c6.68875,0 12.107,5.41966 12.107,12.10559v52.70941z" fill="#9b9b9b"/><path d="M511.48416,275.81792c0,6.68593 -5.42247,12.107 -12.107,12.107h-103.82331c-6.68593,0 -12.10559,-5.42247 -12.10559,-12.107v-52.70941c0,-6.68593 5.41966,-12.10559 12.10559,-12.10559h103.82191c6.68875,0 12.107,5.41966 12.107,12.10559v52.70941z" fill="#9b9b9b"/><path d="M681.39487,275.91335c0,6.68593 -5.42247,12.107 -12.107,12.107h-103.82331c-6.68593,0 -12.10559,-5.42247 -12.10559,-12.107v-52.70941c0,-6.68593 5.41966,-12.10559 12.10559,-12.10559h103.82191c6.68875,0 12.107,5.41966 12.107,12.10559v52.70941z" fill="#9b9b9b"/><path d="M616.47926,275.82072c0,6.68593 -5.42247,12.107 -12.107,12.107h-103.82331c-6.68593,0 -12.10559,-5.42247 -12.10559,-12.107v-52.70941c0,-6.68593 5.41966,-12.10559 12.10559,-12.10559h103.82191c6.68875,0 12.107,5.41966 12.107,12.10559v52.70941z" fill="#9b9b9b"/><path d="M742.8878,275.73502c0,6.68593 -5.42247,12.107 -12.107,12.107h-103.82331c-6.68593,0 -12.10559,-5.42247 -12.10559,-12.107v-52.70941c0,-6.68593 5.41966,-12.10559 12.10559,-12.10559h103.82191c6.68875,0 12.107,5.41966 12.107,12.10559v52.70941z" fill="#9b9b9b"/><path d="M450.01297,316.25452c0,6.68593 -5.42247,12.107 -12.107,12.107h-103.82331c-6.68593,0 -12.10559,-5.42247 -12.10559,-12.107v-52.70941c0,-6.68593 5.41966,-12.10559 12.10559,-12.10559h103.82191c6.68875,0 12.107,5.41966 12.107,12.10559v52.70941z" fill="#9b9b9b"/><path d="M385.09735,316.16189c0,6.68593 -5.42247,12.107 -12.107,12.107h-103.82331c-6.68593,0 -12.10559,-5.42247 -12.10559,-12.107v-52.70941c0,-6.68593 5.41966,-12.10559 12.10559,-12.10559h103.82191c6.68875,0 12.107,5.41966 12.107,12.10559v52.70941z" fill="#9b9b9b"/><path d="M576.42151,316.16882c0,6.68593 -5.42247,12.107 -12.107,12.107h-103.82331c-6.68593,0 -12.10559,-5.42247 -12.10559,-12.107v-52.70941c0,-6.68593 5.41966,-12.10559 12.10559,-12.10559h103.82191c6.68875,0 12.107,5.41966 12.107,12.10559v52.70941z" fill="#9b9b9b"/><path d="M511.50589,316.07619c0,6.68593 -5.42247,12.107 -12.107,12.107h-103.82331c-6.68593,0 -12.10559,-5.42247 -12.10559,-12.107v-52.70941c0,-6.68593 5.41966,-12.10559 12.10559,-12.10559h103.82191c6.68875,0 12.107,5.41966 12.107,12.10559v52.70941z" fill="#9b9b9b"/><path d="M681.4166,316.17162c0,6.68593 -5.42247,12.107 -12.107,12.107h-103.82331c-6.68593,0 -12.10559,-5.42247 -12.10559,-12.107v-52.70941c0,-6.68593 5.41966,-12.10559 12.10559,-12.10559h103.82191c6.68875,0 12.107,5.41966 12.107,12.10559v52.70941z" fill="#9b9b9b"/><path d="M616.50099,316.07899c0,6.68593 -5.42247,12.107 -12.107,12.107h-103.82331c-6.68593,0 -12.10559,-5.42247 -12.10559,-12.107v-52.70941c0,-6.68593 5.41966,-12.10559 12.10559,-12.10559h103.82191c6.68875,0 12.107,5.41966 12.107,12.10559v52.70941z" fill="#9b9b9b"/><path d="M742.90953,315.99329c0,6.68593 -5.42247,12.107 -12.107,12.107h-103.82331c-6.68593,0 -12.10559,-5.42247 -12.10559,-12.107v-52.70941c0,-6.68593 5.41966,-12.10559 12.10559,-12.10559h103.82191c6.68875,0 12.107,5.41966 12.107,12.10559v52.70941z" fill="#9b9b9b"/><path d="M449.99257,366.63004c0,6.68593 -5.42247,12.107 -12.107,12.107h-103.82331c-6.68593,0 -12.10559,-5.42247 -12.10559,-12.107v-52.70941c0,-6.68593 5.41966,-12.10559 12.10559,-12.10559h103.82191c6.68875,0 12.107,5.41966 12.107,12.10559v52.70941z" fill="#9b9b9b"/><path d="M385.07695,366.53741c0,6.68593 -5.42247,12.107 -12.107,12.107h-103.82331c-6.68593,0 -12.10559,-5.42247 -12.10559,-12.107v-52.70941c0,-6.68593 5.41966,-12.10559 12.10559,-12.10559h103.82191c6.68875,0 12.107,5.41966 12.107,12.10559v52.70941z" fill="#9b9b9b"/><path d="M576.40111,366.54434c0,6.68593 -5.42247,12.107 -12.107,12.107h-103.82331c-6.68593,0 -12.10559,-5.42247 -12.10559,-12.107v-52.70941c0,-6.68593 5.41966,-12.10559 12.10559,-12.10559h103.82191c6.68875,0 12.107,5.41966 12.107,12.10559v52.70941z" fill="#9b9b9b"/><path d="M511.48549,366.45171c0,6.68593 -5.42247,12.107 -12.107,12.107h-103.82331c-6.68593,0 -12.10559,-5.42247 -12.10559,-12.107v-52.70941c0,-6.68593 5.41966,-12.10559 12.10559,-12.10559h103.82191c6.68875,0 12.107,5.41966 12.107,12.10559v52.70941z" fill="#9b9b9b"/><path d="M681.3962,366.54714c0,6.68593 -5.42247,12.107 -12.107,12.107h-103.82331c-6.68593,0 -12.10559,-5.42247 -12.10559,-12.107v-52.70941c0,-6.68593 5.41966,-12.10559 12.10559,-12.10559h103.82191c6.68875,0 12.107,5.41966 12.107,12.10559v52.70941z" fill="#9b9b9b"/><path d="M616.48059,366.45451c0,6.68593 -5.42247,12.107 -12.107,12.107h-103.82331c-6.68593,0 -12.10559,-5.42247 -12.10559,-12.107v-52.70941c0,-6.68593 5.41966,-12.10559 12.10559,-12.10559h103.82191c6.68875,0 12.107,5.41966 12.107,12.10559v52.70941z" fill="#9b9b9b"/><path d="M742.88913,366.36881c0,6.68593 -5.42247,12.107 -12.107,12.107h-103.82331c-6.68593,0 -12.10559,-5.42247 -12.10559,-12.107v-52.70941c0,-6.68593 5.41966,-12.10559 12.10559,-12.10559h103.82191c6.68875,0 12.107,5.41966 12.107,12.10559v52.70941z" fill="#9b9b9b"/><path d="M449.96312,398.90675c0,6.68593 -5.42247,12.107 -12.107,12.107h-103.82331c-6.68593,0 -12.10559,-5.42247 -12.10559,-12.107v-52.70941c0,-6.68593 5.41966,-12.10559 12.10559,-12.10559h103.82191c6.68875,0 12.107,5.41966 12.107,12.10559v52.70941z" fill="#9b9b9b"/><path d="M385.0475,398.81412c0,6.68593 -5.42247,12.107 -12.107,12.107h-103.82331c-6.68593,0 -12.10559,-5.42247 -12.10559,-12.107v-52.70941c0,-6.68593 5.41966,-12.10559 12.10559,-12.10559h103.82191c6.68875,0 12.107,5.41966 12.107,12.10559v52.70941z" fill="#9b9b9b"/><path d="M576.37166,398.82105c0,6.68593 -5.42247,12.107 -12.107,12.107h-103.82331c-6.68593,0 -12.10559,-5.42247 -12.10559,-12.107v-52.70941c0,-6.68593 5.41966,-12.10559 12.10559,-12.10559h103.82191c6.68875,0 12.107,5.41966 12.107,12.10559v52.70941z" fill="#9b9b9b"/><path d="M511.45604,398.72842c0,6.68593 -5.42247,12.107 -12.107,12.107h-103.82331c-6.68593,0 -12.10559,-5.42247 -12.10559,-12.107v-52.70941c0,-6.68593 5.41966,-12.10559 12.10559,-12.10559h103.82191c6.68875,0 12.107,5.41966 12.107,12.10559v52.70941z" fill="#9b9b9b"/><path d="M681.36675,398.82385c0,6.68593 -5.42247,12.107 -12.107,12.107h-103.82331c-6.68593,0 -12.10559,-5.42247 -12.10559,-12.107v-52.70941c0,-6.68593 5.41966,-12.10559 12.10559,-12.10559h103.82191c6.68875,0 12.107,5.41966 12.107,12.10559v52.70941z" fill="#9b9b9b"/><path d="M616.45114,398.73122c0,6.68593 -5.42247,12.107 -12.107,12.107h-103.82331c-6.68593,0 -12.10559,-5.42247 -12.10559,-12.107v-52.70941c0,-6.68593 5.41966,-12.10559 12.10559,-12.10559h103.82191c6.68875,0 12.107,5.41966 12.107,12.10559v52.70941z" fill="#9b9b9b"/><path d="M742.85968,398.64552c0,6.68593 -5.42247,12.107 -12.107,12.107h-103.82331c-6.68593,0 -12.10559,-5.42247 -12.10559,-12.107v-52.70941c0,-6.68593 5.41966,-12.10559 12.10559,-12.10559h103.82191c6.68875,0 12.107,5.41966 12.107,12.10559v52.70941z" fill="#9b9b9b"/><path d="M449.94273,449.28228c0,6.68593 -5.42247,12.107 -12.107,12.107h-103.82331c-6.68593,0 -12.10559,-5.42247 -12.10559,-12.107v-52.70941c0,-6.68593 5.41966,-12.10559 12.10559,-12.10559h103.82191c6.68875,0 12.107,5.41966 12.107,12.10559v52.70941z" fill="#9b9b9b"/><path d="M385.02711,449.18965c0,6.68593 -5.42247,12.107 -12.107,12.107h-103.82331c-6.68593,0 -12.10559,-5.42247 -12.10559,-12.107v-52.70941c0,-6.68593 5.41966,-12.10559 12.10559,-12.10559h103.82191c6.68875,0 12.107,5.41966 12.107,12.10559v52.70941z" fill="#9b9b9b"/><path d="M576.35127,449.19658c0,6.68593 -5.42247,12.107 -12.107,12.107h-103.82331c-6.68593,0 -12.10559,-5.42247 -12.10559,-12.107v-52.70941c0,-6.68593 5.41966,-12.10559 12.10559,-12.10559h103.82191c6.68875,0 12.107,5.41966 12.107,12.10559v52.70941z" fill="#9b9b9b"/><path d="M511.43565,449.10395c0,6.68593 -5.42247,12.107 -12.107,12.107h-103.82331c-6.68593,0 -12.10559,-5.42247 -12.10559,-12.107v-52.70941c0,-6.68593 5.41966,-12.10559 12.10559,-12.10559h103.82191c6.68875,0 12.107,5.41966 12.107,12.10559v52.70941z" fill="#9b9b9b"/><path d="M681.34636,449.19938c0,6.68593 -5.42247,12.107 -12.107,12.107h-103.82331c-6.68593,0 -12.10559,-5.42247 -12.10559,-12.107v-52.70941c0,-6.68593 5.41966,-12.10559 12.10559,-12.10559h103.82191c6.68875,0 12.107,5.41966 12.107,12.10559v52.70941z" fill="#9b9b9b"/><path d="M616.43075,449.10675c0,6.68593 -5.42247,12.107 -12.107,12.107h-103.82331c-6.68593,0 -12.10559,-5.42247 -12.10559,-12.107v-52.70941c0,-6.68593 5.41966,-12.10559 12.10559,-12.10559h103.82191c6.68875,0 12.107,5.41966 12.107,12.10559v52.70941z" fill="#9b9b9b"/><path d="M742.83929,449.02105c0,6.68593 -5.42247,12.107 -12.107,12.107h-103.82331c-6.68593,0 -12.10559,-5.42247 -12.10559,-12.107v-52.70941c0,-6.68593 5.41966,-12.10559 12.10559,-12.10559h103.82191c6.68875,0 12.107,5.41966 12.107,12.10559v52.70941z" fill="#9b9b9b"/><path d="M449.96445,489.54055c0,6.68593 -5.42247,12.107 -12.107,12.107h-103.82331c-6.68593,0 -12.10559,-5.42247 -12.10559,-12.107v-52.70941c0,-6.68593 5.41966,-12.10559 12.10559,-12.10559h103.82191c6.68875,0 12.107,5.41966 12.107,12.10559v52.70941z" fill="#9b9b9b"/><path d="M385.04883,489.44792c0,6.68593 -5.42247,12.107 -12.107,12.107h-103.82331c-6.68593,0 -12.10559,-5.42247 -12.10559,-12.107v-52.70941c0,-6.68593 5.41966,-12.10559 12.10559,-12.10559h103.82191c6.68875,0 12.107,5.41966 12.107,12.10559v52.70941z" fill="#9b9b9b"/><path d="M576.37299,489.45485c0,6.68593 -5.42247,12.107 -12.107,12.107h-103.82331c-6.68593,0 -12.10559,-5.42247 -12.10559,-12.107v-52.70941c0,-6.68593 5.41966,-12.10559 12.10559,-12.10559h103.82191c6.68875,0 12.107,5.41966 12.107,12.10559v52.70941z" fill="#9b9b9b"/><path d="M511.45737,489.36222c0,6.68593 -5.42247,12.107 -12.107,12.107h-103.82331c-6.68593,0 -12.10559,-5.42247 -12.10559,-12.107v-52.70941c0,-6.68593 5.41966,-12.10559 12.10559,-12.10559h103.82191c6.68875,0 12.107,5.41966 12.107,12.10559v52.70941z" fill="#9b9b9b"/><path d="M681.36808,489.45765c0,6.68593 -5.42247,12.107 -12.107,12.107h-103.82331c-6.68593,0 -12.10559,-5.42247 -12.10559,-12.107v-52.70941c0,-6.68593 5.41966,-12.10559 12.10559,-12.10559h103.82191c6.68875,0 12.107,5.41966 12.107,12.10559v52.70941z" fill="#9b9b9b"/><path d="M616.45247,489.36502c0,6.68593 -5.42247,12.107 -12.107,12.107h-103.82331c-6.68593,0 -12.10559,-5.42247 -12.10559,-12.107v-52.70941c0,-6.68593 5.41966,-12.10559 12.10559,-12.10559h103.82191c6.68875,0 12.107,5.41966 12.107,12.10559v52.70941z" fill="#9b9b9b"/><path d="M742.86101,489.27932c0,6.68593 -5.42247,12.107 -12.107,12.107h-103.82331c-6.68593,0 -12.10559,-5.42247 -12.10559,-12.107v-52.70941c0,-6.68593 5.41966,-12.10559 12.10559,-12.10559h103.82191c6.68875,0 12.107,5.41966 12.107,12.10559v52.70941z" fill="#9b9b9b"/><path d="M449.94406,539.91607c0,6.68593 -5.42247,12.107 -12.107,12.107h-103.82331c-6.68593,0 -12.10559,-5.42247 -12.10559,-12.107v-52.70941c0,-6.68593 5.41966,-12.10559 12.10559,-12.10559h103.82191c6.68875,0 12.107,5.41966 12.107,12.10559v52.70941z" fill="#9b9b9b"/><path d="M385.02844,539.82344c0,6.68593 -5.42247,12.107 -12.107,12.107h-103.82331c-6.68593,0 -12.10559,-5.42247 -12.10559,-12.107v-52.70941c0,-6.68593 5.41966,-12.10559 12.10559,-12.10559h103.82191c6.68875,0 12.107,5.41966 12.107,12.10559v52.70941z" fill="#9b9b9b"/><path d="M576.3526,539.83037c0,6.68593 -5.42247,12.107 -12.107,12.107h-103.82331c-6.68593,0 -12.10559,-5.42247 -12.10559,-12.107v-52.70941c0,-6.68593 5.41966,-12.10559 12.10559,-12.10559h103.82191c6.68875,0 12.107,5.41966 12.107,12.10559v52.70941z" fill="#9b9b9b"/><path d="M511.43698,539.73774c0,6.68593 -5.42247,12.107 -12.107,12.107h-103.82331c-6.68593,0 -12.10559,-5.42247 -12.10559,-12.107v-52.70941c0,-6.68593 5.41966,-12.10559 12.10559,-12.10559h103.82191c6.68875,0 12.107,5.41966 12.107,12.10559v52.70941z" fill="#9b9b9b"/><path d="M681.34769,539.83317c0,6.68593 -5.42247,12.107 -12.107,12.107h-103.82331c-6.68593,0 -12.10559,-5.42247 -12.10559,-12.107v-52.70941c0,-6.68593 5.41966,-12.10559 12.10559,-12.10559h103.82191c6.68875,0 12.107,5.41966 12.107,12.10559v52.70941z" fill="#9b9b9b"/><path d="M616.43208,539.74054c0,6.68593 -5.42247,12.107 -12.107,12.107h-103.82331c-6.68593,0 -12.10559,-5.42247 -12.10559,-12.107v-52.70941c0,-6.68593 5.41966,-12.10559 12.10559,-12.10559h103.82191c6.68875,0 12.107,5.41966 12.107,12.10559v52.70941z" fill="#9b9b9b"/><path d="M742.84062,539.65484c0,6.68593 -5.42247,12.107 -12.107,12.107h-103.82331c-6.68593,0 -12.10559,-5.42247 -12.10559,-12.107v-52.70941c0,-6.68593 5.41966,-12.10559 12.10559,-12.10559h103.82191c6.68875,0 12.107,5.41966 12.107,12.10559v52.70941z" fill="#9b9b9b"/><path d="M450.11223,163.05316c0,6.68593 -5.42247,12.107 -12.107,12.107h-103.82331c-6.68593,0 -12.10559,-5.42247 -12.10559,-12.107v-52.70941c0,-6.68593 5.41966,-12.10559 12.10559,-12.10559h103.82191c6.68875,0 12.107,5.41966 12.107,12.10559v52.70941z" fill="#9b9b9b"/><path d="M385.19661,162.96053c0,6.68593 -5.42247,12.107 -12.107,12.107h-103.82331c-6.68593,0 -12.10559,-5.42247 -12.10559,-12.107v-52.70941c0,-6.68593 5.41966,-12.10559 12.10559,-12.10559h103.82191c6.68875,0 12.107,5.41966 12.107,12.10559v52.70941z" fill="#9b9b9b"/><path d="M576.52077,162.96746c0,6.68593 -5.42247,12.107 -12.107,12.107h-103.82331c-6.68593,0 -12.10559,-5.42247 -12.10559,-12.107v-52.70941c0,-6.68593 5.41966,-12.10559 12.10559,-12.10559h103.82191c6.68875,0 12.107,5.41966 12.107,12.10559v52.70941z" fill="#9b9b9b"/><path d="M511.60515,162.87483c0,6.68593 -5.42247,12.107 -12.107,12.107h-103.82331c-6.68593,0 -12.10559,-5.42247 -12.10559,-12.107v-52.70941c0,-6.68593 5.41966,-12.10559 12.10559,-12.10559h103.82191c6.68875,0 12.107,5.41966 12.107,12.10559v52.70941z" fill="#9b9b9b"/><path d="M681.51586,162.97026c0,6.68593 -5.42247,12.107 -12.107,12.107h-103.82331c-6.68593,0 -12.10559,-5.42247 -12.10559,-12.107v-52.70941c0,-6.68593 5.41966,-12.10559 12.10559,-12.10559h103.82191c6.68875,0 12.107,5.41966 12.107,12.10559v52.70941z" fill="#9b9b9b"/><path d="M616.60025,162.87763c0,6.68593 -5.42247,12.107 -12.107,12.107h-103.82331c-6.68593,0 -12.10559,-5.42247 -12.10559,-12.107v-52.70941c0,-6.68593 5.41966,-12.10559 12.10559,-12.10559h103.82191c6.68875,0 12.107,5.41966 12.107,12.10559v52.70941z" fill="#9b9b9b"/><path d="M743.00879,162.79193c0,6.68593 -5.42247,12.107 -12.107,12.107h-103.82331c-6.68593,0 -12.10559,-5.42247 -12.10559,-12.107v-52.70941c0,-6.68593 5.41966,-12.10559 12.10559,-12.10559h103.82191c6.68875,0 12.107,5.41966 12.107,12.10559v52.70941z" fill="#9b9b9b"/><path d="M450.09184,213.42868c0,6.68593 -5.42247,12.107 -12.107,12.107h-103.82331c-6.68593,0 -12.10559,-5.42247 -12.10559,-12.107v-52.70941c0,-6.68593 5.41966,-12.10559 12.10559,-12.10559h103.82191c6.68875,0 12.107,5.41966 12.107,12.10559v52.70941z" fill="#9b9b9b"/><path d="M385.17622,213.33605c0,6.68593 -5.42247,12.107 -12.107,12.107h-103.82331c-6.68593,0 -12.10559,-5.42247 -12.10559,-12.107v-52.70941c0,-6.68593 5.41966,-12.10559 12.10559,-12.10559h103.82191c6.68875,0 12.107,5.41966 12.107,12.10559v52.70941z" fill="#9b9b9b"/><path d="M576.50038,213.34298c0,6.68593 -5.42247,12.107 -12.107,12.107h-103.82331c-6.68593,0 -12.10559,-5.42247 -12.10559,-12.107v-52.70941c0,-6.68593 5.41966,-12.10559 12.10559,-12.10559h103.82191c6.68875,0 12.107,5.41966 12.107,12.10559v52.70941z" fill="#9b9b9b"/><path d="M511.58476,213.25035c0,6.68593 -5.42247,12.107 -12.107,12.107h-103.82331c-6.68593,0 -12.10559,-5.42247 -12.10559,-12.107v-52.70941c0,-6.68593 5.41966,-12.10559 12.10559,-12.10559h103.82191c6.68875,0 12.107,5.41966 12.107,12.10559v52.70941z" fill="#9b9b9b"/><path d="M681.49547,213.34578c0,6.68593 -5.42247,12.107 -12.107,12.107h-103.82331c-6.68593,0 -12.10559,-5.42247 -12.10559,-12.107v-52.70941c0,-6.68593 5.41966,-12.10559 12.10559,-12.10559h103.82191c6.68875,0 12.107,5.41966 12.107,12.10559v52.70941z" fill="#9b9b9b"/><path d="M616.57986,213.25315c0,6.68593 -5.42247,12.107 -12.107,12.107h-103.82331c-6.68593,0 -12.10559,-5.42247 -12.10559,-12.107v-52.70941c0,-6.68593 5.41966,-12.10559 12.10559,-12.10559h103.82191c6.68875,0 12.107,5.41966 12.107,12.10559v52.70941z" fill="#9b9b9b"/><path d="M742.9884,213.16745c0,6.68593 -5.42247,12.107 -12.107,12.107h-103.82331c-6.68593,0 -12.10559,-5.42247 -12.10559,-12.107v-52.70941c0,-6.68593 5.41966,-12.10559 12.10559,-12.10559h103.82191c6.68875,0 12.107,5.41966 12.107,12.10559v52.70941z" fill="#9b9b9b"/><path d="M294.94302,116.52232c0,1.98125 -1.60685,3.58768 -3.58768,3.58768h-30.76605c-1.98125,0 -3.58726,-1.60685 -3.58726,-3.58768v-15.61942c0,-1.98125 1.60601,-3.58726 3.58726,-3.58726h30.76563c1.98208,0 3.58768,1.60601 3.58768,3.58726v15.61942z" fill="#353535"/><path d="M322.72142,116.54183c0,1.98125 -1.60684,3.58768 -3.58767,3.58768h-30.76605c-1.98125,0 -3.58726,-1.60685 -3.58726,-3.58768v-15.61943c0,-1.98125 1.60602,-3.58726 3.58726,-3.58726h30.76563c1.98208,0 3.58768,1.60601 3.58768,3.58726v15.61943z" fill="#353535"/><path d="M352.89731,116.61507c0,1.98125 -1.60684,3.58768 -3.58767,3.58768h-30.76605c-1.98125,0 -3.58726,-1.60685 -3.58726,-3.58768v-15.61943c0,-1.98125 1.60602,-3.58726 3.58726,-3.58726h30.76563c1.98208,0 3.58768,1.60601 3.58768,3.58726v15.61943z" fill="#353535"/><path d="M380.67572,116.63459c0,1.98125 -1.60685,3.58768 -3.58768,3.58768h-30.76605c-1.98125,0 -3.58726,-1.60685 -3.58726,-3.58768v-15.61943c0,-1.98125 1.60602,-3.58726 3.58726,-3.58726h30.76563c1.98208,0 3.58767,1.60601 3.58767,3.58726v15.61943z" fill="#353535"/><path d="M400.55344,116.55713c0,1.98125 -1.60684,3.58768 -3.58767,3.58768h-30.76605c-1.98125,0 -3.58726,-1.60685 -3.58726,-3.58768v-15.61943c0,-1.98125 1.60602,-3.58726 3.58726,-3.58726h30.76563c1.98208,0 3.58768,1.60601 3.58768,3.58726v15.61943z" fill="#353535"/><path d="M428.33184,116.57664c0,1.98125 -1.60685,3.58768 -3.58768,3.58768h-30.76605c-1.98125,0 -3.58726,-1.60685 -3.58726,-3.58768v-15.61943c0,-1.98125 1.60602,-3.58726 3.58726,-3.58726h30.76563c1.98208,0 3.58767,1.60601 3.58767,3.58726v15.61943z" fill="#353535"/><path d="M458.50774,116.64988c0,1.98125 -1.60684,3.58768 -3.58767,3.58768h-30.76605c-1.98125,0 -3.58726,-1.60685 -3.58726,-3.58768v-15.61943c0,-1.98125 1.60602,-3.58726 3.58726,-3.58726h30.76564c1.98208,0 3.58767,1.60601 3.58767,3.58726v15.61943z" fill="#353535"/><path d="M486.28614,116.6694c0,1.98125 -1.60684,3.58768 -3.58767,3.58768h-30.76605c-1.98125,0 -3.58726,-1.60685 -3.58726,-3.58768v-15.61943c0,-1.98125 1.60602,-3.58726 3.58726,-3.58726h30.76563c1.98208,0 3.58767,1.60601 3.58767,3.58726v15.61943z" fill="#353535"/><path d="M511.91302,116.59194c0,1.98125 -1.60685,3.58768 -3.58768,3.58768h-30.76605c-1.98125,0 -3.58726,-1.60685 -3.58726,-3.58768v-15.61942c0,-1.98125 1.60601,-3.58726 3.58726,-3.58726h30.76563c1.98209,0 3.58768,1.60601 3.58768,3.58726v15.61942z" fill="#353535"/><path d="M539.69143,116.61145c0,1.98125 -1.60685,3.58768 -3.58767,3.58768h-30.76605c-1.98125,0 -3.58726,-1.60685 -3.58726,-3.58768v-15.61942c0,-1.98125 1.60601,-3.58726 3.58726,-3.58726h30.76563c1.98208,0 3.58768,1.60601 3.58768,3.58726v15.61942z" fill="#353535"/><path d="M569.86732,116.68469c0,1.98125 -1.60685,3.58768 -3.58768,3.58768h-30.76605c-1.98124,0 -3.58726,-1.60685 -3.58726,-3.58768v-15.61942c0,-1.98125 1.60602,-3.58726 3.58726,-3.58726h30.76563c1.98209,0 3.58767,1.60601 3.58767,3.58726v15.61942z" fill="#353535"/><path d="M597.64573,116.70421c0,1.98125 -1.60685,3.58768 -3.58767,3.58768h-30.76605c-1.98125,0 -3.58726,-1.60685 -3.58726,-3.58768v-15.61942c0,-1.98125 1.60601,-3.58726 3.58726,-3.58726h30.76563c1.98209,0 3.58767,1.60601 3.58767,3.58726v15.61942z" fill="#353535"/><path d="M627.66141,116.44187c0,1.98125 -1.60684,3.58768 -3.58767,3.58768h-30.76605c-1.98125,0 -3.58726,-1.60685 -3.58726,-3.58768v-15.61942c0,-1.98125 1.60601,-3.58726 3.58726,-3.58726h30.76563c1.98208,0 3.58767,1.60601 3.58767,3.58726v15.61942z" fill="#353535"/><path d="M655.43981,116.46138c0,1.98125 -1.60684,3.58768 -3.58767,3.58768h-30.76605c-1.98124,0 -3.58726,-1.60685 -3.58726,-3.58768v-15.61943c0,-1.98125 1.60602,-3.58726 3.58726,-3.58726h30.76563c1.98209,0 3.58768,1.60601 3.58768,3.58726v15.61943z" fill="#353535"/><path d="M685.61571,116.53462c0,1.98125 -1.60685,3.58768 -3.58768,3.58768h-30.76605c-1.98124,0 -3.58726,-1.60685 -3.58726,-3.58768v-15.61943c0,-1.98125 1.60602,-3.58726 3.58726,-3.58726h30.76563c1.98209,0 3.58767,1.60601 3.58767,3.58726v15.61943z" fill="#353535"/><path d="M713.39411,116.55414c0,1.98124 -1.60684,3.58768 -3.58767,3.58768h-30.76605c-1.98124,0 -3.58726,-1.60685 -3.58726,-3.58768v-15.61942c0,-1.98125 1.60602,-3.58726 3.58726,-3.58726h30.76564c1.98208,0 3.58767,1.60601 3.58767,3.58726v15.61942z" fill="#353535"/><path d="M743.31218,116.61986c0,1.98125 -1.60685,3.58768 -3.58767,3.58768h-30.76605c-1.98124,0 -3.58726,-1.60685 -3.58726,-3.58768v-15.61943c0,-1.98125 1.60602,-3.58726 3.58726,-3.58726h30.76563c1.98208,0 3.58767,1.60601 3.58767,3.58726v15.61943z" fill="#353535"/><path d="M775.52681,117.07546c0,1.98125 -1.60685,3.58768 -3.58767,3.58768h-30.76605c-1.98124,0 -3.58726,-1.60685 -3.58726,-3.58768v-15.61943c0,-1.98125 1.60601,-3.58726 3.58726,-3.58726h30.76564c1.98208,0 3.58767,1.60601 3.58767,3.58726v15.61943z" fill="#353535"/><text transform="translate(263.42812,113.57166) scale(0.35543,0.35543)" font-size="40" xml:space="preserve" fill="#9b9b9b" fill-rule="nonzero" stroke="none" stroke-width="1" stroke-linecap="butt" stroke-linejoin="miter" stroke-miterlimit="10" stroke-dasharray="" stroke-dashoffset="0" font-family="Sans Serif" font-weight="normal" text-anchor="start" style="mix-blend-mode: normal"><tspan x="0" dy="0">Recovory</tspan></text><text transform="translate(440.36335,160.84034) scale(1.15056,1.15056)" font-size="40" xml:space="preserve" fill="#353535" fill-rule="nonzero" stroke="none" stroke-width="1" stroke-linecap="butt" stroke-linejoin="miter" stroke-miterlimit="10" stroke-dasharray="" stroke-dashoffset="0" font-family="Sans Serif" font-weight="normal" text-anchor="start" style="mix-blend-mode: normal"><tspan x="0" dy="0">Recovory</tspan></text></g></g></svg>