<svg version="1.1" xmlns="http://www.w3.org/2000/svg" xmlns:xlink="http://www.w3.org/1999/xlink" width="1063.96683" height="79.52214" viewBox="0,0,1063.96683,79.52214"><g transform="translate(53.84001,-584.01266)"><g data-paper-data="{&quot;isPaintingLayer&quot;:true}" fill="#9b9b9b" fill-rule="nonzero" stroke="none" stroke-width="1" stroke-linecap="butt" stroke-linejoin="miter" stroke-miterlimit="10" stroke-dasharray="" stroke-dashoffset="0" style="mix-blend-mode: normal"><path d="M74.19589,651.42779c0,6.68593 -5.42247,12.107 -12.107,12.107h-103.82331c-6.68593,0 -12.10559,-5.42247 -12.10559,-12.107v-52.70941c0,-6.68593 5.41966,-12.10559 12.10559,-12.10559h103.82191c6.68875,0 12.107,5.41966 12.107,12.10559v52.70941z"/><path d="M1010.12682,648.92028c0,6.68593 -5.42247,12.107 -12.107,12.107h-103.82331c-6.68593,0 -12.10559,-5.42247 -12.10559,-12.107v-52.70941c0,-6.68593 5.41966,-12.10559 12.10559,-12.10559h103.82191c6.68875,0 12.107,5.41966 12.107,12.10559v52.70941z"/><path d="M945.21121,648.82766c0,6.68593 -5.42247,12.107 -12.107,12.107h-103.82331c-6.68593,0 -12.10559,-5.42247 -12.10559,-12.107v-52.70941c0,-6.68593 5.41966,-12.10559 12.10559,-12.10559h103.82191c6.68875,0 12.107,5.41966 12.107,12.10559v52.70941z"/><path d="M366.47818,650.91728c0,6.68593 -5.42247,12.107 -12.107,12.107h-103.82331c-6.68593,0 -12.10559,-5.42247 -12.10559,-12.107v-52.70941c0,-6.68593 5.41966,-12.10559 12.10559,-12.10559h103.82191c6.68875,0 12.107,5.41966 12.107,12.10559v52.70941z"/><path d="M301.56256,650.82465c0,6.68593 -5.42247,12.107 -12.107,12.107h-103.82331c-6.68593,0 -12.10559,-5.42247 -12.10559,-12.107v-52.70941c0,-6.68593 5.41966,-12.10559 12.10559,-12.10559h103.82191c6.68875,0 12.107,5.41966 12.107,12.10559v52.70941z"/><path d="M492.88672,650.83158c0,6.68593 -5.42247,12.107 -12.107,12.107h-103.82331c-6.68593,0 -12.10559,-5.42247 -12.10559,-12.107v-52.70941c0,-6.68593 5.41966,-12.10559 12.10559,-12.10559h103.82191c6.68875,0 12.107,5.41966 12.107,12.10559v52.70941z"/><path d="M427.9711,650.73895c0,6.68593 -5.42247,12.107 -12.107,12.107h-103.82331c-6.68593,0 -12.10559,-5.42247 -12.10559,-12.107v-52.70941c0,-6.68593 5.41966,-12.10559 12.10559,-12.10559h103.82191c6.68875,0 12.107,5.41966 12.107,12.10559v52.70941z"/><path d="M597.88181,650.83438c0,6.68593 -5.42247,12.107 -12.107,12.107h-103.82331c-6.68593,0 -12.10559,-5.42247 -12.10559,-12.107v-52.70941c0,-6.68593 5.41966,-12.10559 12.10559,-12.10559h103.82191c6.68875,0 12.107,5.41966 12.107,12.10559v52.70941z"/><path d="M532.9662,650.74175c0,6.68593 -5.42247,12.107 -12.107,12.107h-103.82331c-6.68593,0 -12.10559,-5.42247 -12.10559,-12.107v-52.70941c0,-6.68593 5.41966,-12.10559 12.10559,-12.10559h103.82191c6.68875,0 12.107,5.41966 12.107,12.10559v52.70941z"/><path d="M724.29036,650.74868c0,6.68593 -5.42247,12.107 -12.107,12.107h-103.82331c-6.68593,0 -12.10559,-5.42247 -12.10559,-12.107v-52.70941c0,-6.68593 5.41966,-12.10559 12.10559,-12.10559h103.82191c6.68875,0 12.107,5.41966 12.107,12.10559v52.70941z"/><path d="M659.37474,650.65605c0,6.68593 -5.42247,12.107 -12.107,12.107h-103.82331c-6.68593,0 -12.10559,-5.42247 -12.10559,-12.107v-52.70941c0,-6.68593 5.41966,-12.10559 12.10559,-12.10559h103.82191c6.68875,0 12.107,5.41966 12.107,12.10559v52.70941z"/></g></g></svg>