<svg version="1.1" xmlns="http://www.w3.org/2000/svg" xmlns:xlink="http://www.w3.org/1999/xlink" width="486.01759" height="454.04615" viewBox="0,0,486.01759,454.04615"><g transform="translate(-256.99121,-97.97693)"><g data-paper-data="{&quot;isPaintingLayer&quot;:true}" fill="#9b9b9b" fill-rule="nonzero" stroke="none" stroke-width="1" stroke-linecap="butt" stroke-linejoin="miter" stroke-miterlimit="10" stroke-dasharray="" stroke-dashoffset="0" style="mix-blend-mode: normal"><path d="M450.01164,225.62072c0,6.68593 -5.42247,12.107 -12.107,12.107h-103.82331c-6.68593,0 -12.10559,-5.42247 -12.10559,-12.107v-52.70941c0,-6.68593 5.41966,-12.10559 12.10559,-12.10559h103.82191c6.68875,0 12.107,5.41966 12.107,12.10559v52.70941z"/><path d="M385.09602,225.52809c0,6.68593 -5.42247,12.107 -12.107,12.107h-103.82331c-6.68593,0 -12.10559,-5.42247 -12.10559,-12.107v-52.70941c0,-6.68593 5.41966,-12.10559 12.10559,-12.10559h103.82191c6.68875,0 12.107,5.41966 12.107,12.10559v52.70941z"/><path d="M576.42018,225.53502c0,6.68593 -5.42247,12.107 -12.107,12.107h-103.82331c-6.68593,0 -12.10559,-5.42247 -12.10559,-12.107v-52.70941c0,-6.68593 5.41966,-12.10559 12.10559,-12.10559h103.82191c6.68875,0 12.107,5.41966 12.107,12.10559v52.70941z"/><path d="M511.50456,225.44239c0,6.68593 -5.42247,12.107 -12.107,12.107h-103.82331c-6.68593,0 -12.10559,-5.42247 -12.10559,-12.107v-52.70941c0,-6.68593 5.41966,-12.10559 12.10559,-12.10559h103.82191c6.68875,0 12.107,5.41966 12.107,12.10559v52.70941z"/><path d="M681.41527,225.53782c0,6.68593 -5.42247,12.107 -12.107,12.107h-103.82331c-6.68593,0 -12.10559,-5.42247 -12.10559,-12.107v-52.70941c0,-6.68593 5.41966,-12.10559 12.10559,-12.10559h103.82191c6.68875,0 12.107,5.41966 12.107,12.10559v52.70941z"/><path d="M616.49966,225.44519c0,6.68593 -5.42247,12.107 -12.107,12.107h-103.82331c-6.68593,0 -12.10559,-5.42247 -12.10559,-12.107v-52.70941c0,-6.68593 5.41966,-12.10559 12.10559,-12.10559h103.82191c6.68875,0 12.107,5.41966 12.107,12.10559v52.70941z"/><path d="M742.9082,225.35949c0,6.68593 -5.42247,12.107 -12.107,12.107h-103.82331c-6.68593,0 -12.10559,-5.42247 -12.10559,-12.107v-52.70941c0,-6.68593 5.41966,-12.10559 12.10559,-12.10559h103.82191c6.68875,0 12.107,5.41966 12.107,12.10559v52.70941z"/><path d="M449.99124,275.99625c0,6.68593 -5.42247,12.107 -12.107,12.107h-103.82331c-6.68593,0 -12.10559,-5.42247 -12.10559,-12.107v-52.70941c0,-6.68593 5.41966,-12.10559 12.10559,-12.10559h103.82191c6.68875,0 12.107,5.41966 12.107,12.10559v52.70941z"/><path d="M385.07562,275.90362c0,6.68593 -5.42247,12.107 -12.107,12.107h-103.82331c-6.68593,0 -12.10559,-5.42247 -12.10559,-12.107v-52.70941c0,-6.68593 5.41966,-12.10559 12.10559,-12.10559h103.82191c6.68875,0 12.107,5.41966 12.107,12.10559v52.70941z"/><path d="M576.39978,275.91055c0,6.68593 -5.42247,12.107 -12.107,12.107h-103.82331c-6.68593,0 -12.10559,-5.42247 -12.10559,-12.107v-52.70941c0,-6.68593 5.41966,-12.10559 12.10559,-12.10559h103.82191c6.68875,0 12.107,5.41966 12.107,12.10559v52.70941z"/><path d="M511.48416,275.81792c0,6.68593 -5.42247,12.107 -12.107,12.107h-103.82331c-6.68593,0 -12.10559,-5.42247 -12.10559,-12.107v-52.70941c0,-6.68593 5.41966,-12.10559 12.10559,-12.10559h103.82191c6.68875,0 12.107,5.41966 12.107,12.10559v52.70941z"/><path d="M681.39487,275.91335c0,6.68593 -5.42247,12.107 -12.107,12.107h-103.82331c-6.68593,0 -12.10559,-5.42247 -12.10559,-12.107v-52.70941c0,-6.68593 5.41966,-12.10559 12.10559,-12.10559h103.82191c6.68875,0 12.107,5.41966 12.107,12.10559v52.70941z"/><path d="M616.47926,275.82072c0,6.68593 -5.42247,12.107 -12.107,12.107h-103.82331c-6.68593,0 -12.10559,-5.42247 -12.10559,-12.107v-52.70941c0,-6.68593 5.41966,-12.10559 12.10559,-12.10559h103.82191c6.68875,0 12.107,5.41966 12.107,12.10559v52.70941z"/><path d="M742.8878,275.73502c0,6.68593 -5.42247,12.107 -12.107,12.107h-103.82331c-6.68593,0 -12.10559,-5.42247 -12.10559,-12.107v-52.70941c0,-6.68593 5.41966,-12.10559 12.10559,-12.10559h103.82191c6.68875,0 12.107,5.41966 12.107,12.10559v52.70941z"/><path d="M450.01297,316.25452c0,6.68593 -5.42247,12.107 -12.107,12.107h-103.82331c-6.68593,0 -12.10559,-5.42247 -12.10559,-12.107v-52.70941c0,-6.68593 5.41966,-12.10559 12.10559,-12.10559h103.82191c6.68875,0 12.107,5.41966 12.107,12.10559v52.70941z"/><path d="M385.09735,316.16189c0,6.68593 -5.42247,12.107 -12.107,12.107h-103.82331c-6.68593,0 -12.10559,-5.42247 -12.10559,-12.107v-52.70941c0,-6.68593 5.41966,-12.10559 12.10559,-12.10559h103.82191c6.68875,0 12.107,5.41966 12.107,12.10559v52.70941z"/><path d="M576.42151,316.16882c0,6.68593 -5.42247,12.107 -12.107,12.107h-103.82331c-6.68593,0 -12.10559,-5.42247 -12.10559,-12.107v-52.70941c0,-6.68593 5.41966,-12.10559 12.10559,-12.10559h103.82191c6.68875,0 12.107,5.41966 12.107,12.10559v52.70941z"/><path d="M511.50589,316.07619c0,6.68593 -5.42247,12.107 -12.107,12.107h-103.82331c-6.68593,0 -12.10559,-5.42247 -12.10559,-12.107v-52.70941c0,-6.68593 5.41966,-12.10559 12.10559,-12.10559h103.82191c6.68875,0 12.107,5.41966 12.107,12.10559v52.70941z"/><path d="M681.4166,316.17162c0,6.68593 -5.42247,12.107 -12.107,12.107h-103.82331c-6.68593,0 -12.10559,-5.42247 -12.10559,-12.107v-52.70941c0,-6.68593 5.41966,-12.10559 12.10559,-12.10559h103.82191c6.68875,0 12.107,5.41966 12.107,12.10559v52.70941z"/><path d="M616.50099,316.07899c0,6.68593 -5.42247,12.107 -12.107,12.107h-103.82331c-6.68593,0 -12.10559,-5.42247 -12.10559,-12.107v-52.70941c0,-6.68593 5.41966,-12.10559 12.10559,-12.10559h103.82191c6.68875,0 12.107,5.41966 12.107,12.10559v52.70941z"/><path d="M742.90953,315.99329c0,6.68593 -5.42247,12.107 -12.107,12.107h-103.82331c-6.68593,0 -12.10559,-5.42247 -12.10559,-12.107v-52.70941c0,-6.68593 5.41966,-12.10559 12.10559,-12.10559h103.82191c6.68875,0 12.107,5.41966 12.107,12.10559v52.70941z"/><path d="M449.99257,366.63004c0,6.68593 -5.42247,12.107 -12.107,12.107h-103.82331c-6.68593,0 -12.10559,-5.42247 -12.10559,-12.107v-52.70941c0,-6.68593 5.41966,-12.10559 12.10559,-12.10559h103.82191c6.68875,0 12.107,5.41966 12.107,12.10559v52.70941z"/><path d="M385.07695,366.53741c0,6.68593 -5.42247,12.107 -12.107,12.107h-103.82331c-6.68593,0 -12.10559,-5.42247 -12.10559,-12.107v-52.70941c0,-6.68593 5.41966,-12.10559 12.10559,-12.10559h103.82191c6.68875,0 12.107,5.41966 12.107,12.10559v52.70941z"/><path d="M576.40111,366.54434c0,6.68593 -5.42247,12.107 -12.107,12.107h-103.82331c-6.68593,0 -12.10559,-5.42247 -12.10559,-12.107v-52.70941c0,-6.68593 5.41966,-12.10559 12.10559,-12.10559h103.82191c6.68875,0 12.107,5.41966 12.107,12.10559v52.70941z"/><path d="M511.48549,366.45171c0,6.68593 -5.42247,12.107 -12.107,12.107h-103.82331c-6.68593,0 -12.10559,-5.42247 -12.10559,-12.107v-52.70941c0,-6.68593 5.41966,-12.10559 12.10559,-12.10559h103.82191c6.68875,0 12.107,5.41966 12.107,12.10559v52.70941z"/><path d="M681.3962,366.54714c0,6.68593 -5.42247,12.107 -12.107,12.107h-103.82331c-6.68593,0 -12.10559,-5.42247 -12.10559,-12.107v-52.70941c0,-6.68593 5.41966,-12.10559 12.10559,-12.10559h103.82191c6.68875,0 12.107,5.41966 12.107,12.10559v52.70941z"/><path d="M616.48059,366.45451c0,6.68593 -5.42247,12.107 -12.107,12.107h-103.82331c-6.68593,0 -12.10559,-5.42247 -12.10559,-12.107v-52.70941c0,-6.68593 5.41966,-12.10559 12.10559,-12.10559h103.82191c6.68875,0 12.107,5.41966 12.107,12.10559v52.70941z"/><path d="M742.88913,366.36881c0,6.68593 -5.42247,12.107 -12.107,12.107h-103.82331c-6.68593,0 -12.10559,-5.42247 -12.10559,-12.107v-52.70941c0,-6.68593 5.41966,-12.10559 12.10559,-12.10559h103.82191c6.68875,0 12.107,5.41966 12.107,12.10559v52.70941z"/><path d="M449.96312,398.90675c0,6.68593 -5.42247,12.107 -12.107,12.107h-103.82331c-6.68593,0 -12.10559,-5.42247 -12.10559,-12.107v-52.70941c0,-6.68593 5.41966,-12.10559 12.10559,-12.10559h103.82191c6.68875,0 12.107,5.41966 12.107,12.10559v52.70941z"/><path d="M385.0475,398.81412c0,6.68593 -5.42247,12.107 -12.107,12.107h-103.82331c-6.68593,0 -12.10559,-5.42247 -12.10559,-12.107v-52.70941c0,-6.68593 5.41966,-12.10559 12.10559,-12.10559h103.82191c6.68875,0 12.107,5.41966 12.107,12.10559v52.70941z"/><path d="M576.37166,398.82105c0,6.68593 -5.42247,12.107 -12.107,12.107h-103.82331c-6.68593,0 -12.10559,-5.42247 -12.10559,-12.107v-52.70941c0,-6.68593 5.41966,-12.10559 12.10559,-12.10559h103.82191c6.68875,0 12.107,5.41966 12.107,12.10559v52.70941z"/><path d="M511.45604,398.72842c0,6.68593 -5.42247,12.107 -12.107,12.107h-103.82331c-6.68593,0 -12.10559,-5.42247 -12.10559,-12.107v-52.70941c0,-6.68593 5.41966,-12.10559 12.10559,-12.10559h103.82191c6.68875,0 12.107,5.41966 12.107,12.10559v52.70941z"/><path d="M681.36675,398.82385c0,6.68593 -5.42247,12.107 -12.107,12.107h-103.82331c-6.68593,0 -12.10559,-5.42247 -12.10559,-12.107v-52.70941c0,-6.68593 5.41966,-12.10559 12.10559,-12.10559h103.82191c6.68875,0 12.107,5.41966 12.107,12.10559v52.70941z"/><path d="M616.45114,398.73122c0,6.68593 -5.42247,12.107 -12.107,12.107h-103.82331c-6.68593,0 -12.10559,-5.42247 -12.10559,-12.107v-52.70941c0,-6.68593 5.41966,-12.10559 12.10559,-12.10559h103.82191c6.68875,0 12.107,5.41966 12.107,12.10559v52.70941z"/><path d="M742.85968,398.64552c0,6.68593 -5.42247,12.107 -12.107,12.107h-103.82331c-6.68593,0 -12.10559,-5.42247 -12.10559,-12.107v-52.70941c0,-6.68593 5.41966,-12.10559 12.10559,-12.10559h103.82191c6.68875,0 12.107,5.41966 12.107,12.10559v52.70941z"/><path d="M449.94273,449.28228c0,6.68593 -5.42247,12.107 -12.107,12.107h-103.82331c-6.68593,0 -12.10559,-5.42247 -12.10559,-12.107v-52.70941c0,-6.68593 5.41966,-12.10559 12.10559,-12.10559h103.82191c6.68875,0 12.107,5.41966 12.107,12.10559v52.70941z"/><path d="M385.02711,449.18965c0,6.68593 -5.42247,12.107 -12.107,12.107h-103.82331c-6.68593,0 -12.10559,-5.42247 -12.10559,-12.107v-52.70941c0,-6.68593 5.41966,-12.10559 12.10559,-12.10559h103.82191c6.68875,0 12.107,5.41966 12.107,12.10559v52.70941z"/><path d="M576.35127,449.19658c0,6.68593 -5.42247,12.107 -12.107,12.107h-103.82331c-6.68593,0 -12.10559,-5.42247 -12.10559,-12.107v-52.70941c0,-6.68593 5.41966,-12.10559 12.10559,-12.10559h103.82191c6.68875,0 12.107,5.41966 12.107,12.10559v52.70941z"/><path d="M511.43565,449.10395c0,6.68593 -5.42247,12.107 -12.107,12.107h-103.82331c-6.68593,0 -12.10559,-5.42247 -12.10559,-12.107v-52.70941c0,-6.68593 5.41966,-12.10559 12.10559,-12.10559h103.82191c6.68875,0 12.107,5.41966 12.107,12.10559v52.70941z"/><path d="M681.34636,449.19938c0,6.68593 -5.42247,12.107 -12.107,12.107h-103.82331c-6.68593,0 -12.10559,-5.42247 -12.10559,-12.107v-52.70941c0,-6.68593 5.41966,-12.10559 12.10559,-12.10559h103.82191c6.68875,0 12.107,5.41966 12.107,12.10559v52.70941z"/><path d="M616.43075,449.10675c0,6.68593 -5.42247,12.107 -12.107,12.107h-103.82331c-6.68593,0 -12.10559,-5.42247 -12.10559,-12.107v-52.70941c0,-6.68593 5.41966,-12.10559 12.10559,-12.10559h103.82191c6.68875,0 12.107,5.41966 12.107,12.10559v52.70941z"/><path d="M742.83929,449.02105c0,6.68593 -5.42247,12.107 -12.107,12.107h-103.82331c-6.68593,0 -12.10559,-5.42247 -12.10559,-12.107v-52.70941c0,-6.68593 5.41966,-12.10559 12.10559,-12.10559h103.82191c6.68875,0 12.107,5.41966 12.107,12.10559v52.70941z"/><path d="M449.96445,489.54055c0,6.68593 -5.42247,12.107 -12.107,12.107h-103.82331c-6.68593,0 -12.10559,-5.42247 -12.10559,-12.107v-52.70941c0,-6.68593 5.41966,-12.10559 12.10559,-12.10559h103.82191c6.68875,0 12.107,5.41966 12.107,12.10559v52.70941z"/><path d="M385.04883,489.44792c0,6.68593 -5.42247,12.107 -12.107,12.107h-103.82331c-6.68593,0 -12.10559,-5.42247 -12.10559,-12.107v-52.70941c0,-6.68593 5.41966,-12.10559 12.10559,-12.10559h103.82191c6.68875,0 12.107,5.41966 12.107,12.10559v52.70941z"/><path d="M576.37299,489.45485c0,6.68593 -5.42247,12.107 -12.107,12.107h-103.82331c-6.68593,0 -12.10559,-5.42247 -12.10559,-12.107v-52.70941c0,-6.68593 5.41966,-12.10559 12.10559,-12.10559h103.82191c6.68875,0 12.107,5.41966 12.107,12.10559v52.70941z"/><path d="M511.45737,489.36222c0,6.68593 -5.42247,12.107 -12.107,12.107h-103.82331c-6.68593,0 -12.10559,-5.42247 -12.10559,-12.107v-52.70941c0,-6.68593 5.41966,-12.10559 12.10559,-12.10559h103.82191c6.68875,0 12.107,5.41966 12.107,12.10559v52.70941z"/><path d="M681.36808,489.45765c0,6.68593 -5.42247,12.107 -12.107,12.107h-103.82331c-6.68593,0 -12.10559,-5.42247 -12.10559,-12.107v-52.70941c0,-6.68593 5.41966,-12.10559 12.10559,-12.10559h103.82191c6.68875,0 12.107,5.41966 12.107,12.10559v52.70941z"/><path d="M616.45247,489.36502c0,6.68593 -5.42247,12.107 -12.107,12.107h-103.82331c-6.68593,0 -12.10559,-5.42247 -12.10559,-12.107v-52.70941c0,-6.68593 5.41966,-12.10559 12.10559,-12.10559h103.82191c6.68875,0 12.107,5.41966 12.107,12.10559v52.70941z"/><path d="M742.86101,489.27932c0,6.68593 -5.42247,12.107 -12.107,12.107h-103.82331c-6.68593,0 -12.10559,-5.42247 -12.10559,-12.107v-52.70941c0,-6.68593 5.41966,-12.10559 12.10559,-12.10559h103.82191c6.68875,0 12.107,5.41966 12.107,12.10559v52.70941z"/><path d="M449.94406,539.91607c0,6.68593 -5.42247,12.107 -12.107,12.107h-103.82331c-6.68593,0 -12.10559,-5.42247 -12.10559,-12.107v-52.70941c0,-6.68593 5.41966,-12.10559 12.10559,-12.10559h103.82191c6.68875,0 12.107,5.41966 12.107,12.10559v52.70941z"/><path d="M385.02844,539.82344c0,6.68593 -5.42247,12.107 -12.107,12.107h-103.82331c-6.68593,0 -12.10559,-5.42247 -12.10559,-12.107v-52.70941c0,-6.68593 5.41966,-12.10559 12.10559,-12.10559h103.82191c6.68875,0 12.107,5.41966 12.107,12.10559v52.70941z"/><path d="M576.3526,539.83037c0,6.68593 -5.42247,12.107 -12.107,12.107h-103.82331c-6.68593,0 -12.10559,-5.42247 -12.10559,-12.107v-52.70941c0,-6.68593 5.41966,-12.10559 12.10559,-12.10559h103.82191c6.68875,0 12.107,5.41966 12.107,12.10559v52.70941z"/><path d="M511.43698,539.73774c0,6.68593 -5.42247,12.107 -12.107,12.107h-103.82331c-6.68593,0 -12.10559,-5.42247 -12.10559,-12.107v-52.70941c0,-6.68593 5.41966,-12.10559 12.10559,-12.10559h103.82191c6.68875,0 12.107,5.41966 12.107,12.10559v52.70941z"/><path d="M681.34769,539.83317c0,6.68593 -5.42247,12.107 -12.107,12.107h-103.82331c-6.68593,0 -12.10559,-5.42247 -12.10559,-12.107v-52.70941c0,-6.68593 5.41966,-12.10559 12.10559,-12.10559h103.82191c6.68875,0 12.107,5.41966 12.107,12.10559v52.70941z"/><path d="M616.43208,539.74054c0,6.68593 -5.42247,12.107 -12.107,12.107h-103.82331c-6.68593,0 -12.10559,-5.42247 -12.10559,-12.107v-52.70941c0,-6.68593 5.41966,-12.10559 12.10559,-12.10559h103.82191c6.68875,0 12.107,5.41966 12.107,12.10559v52.70941z"/><path d="M742.84062,539.65484c0,6.68593 -5.42247,12.107 -12.107,12.107h-103.82331c-6.68593,0 -12.10559,-5.42247 -12.10559,-12.107v-52.70941c0,-6.68593 5.41966,-12.10559 12.10559,-12.10559h103.82191c6.68875,0 12.107,5.41966 12.107,12.10559v52.70941z"/><path d="M450.11223,163.05316c0,6.68593 -5.42247,12.107 -12.107,12.107h-103.82331c-6.68593,0 -12.10559,-5.42247 -12.10559,-12.107v-52.70941c0,-6.68593 5.41966,-12.10559 12.10559,-12.10559h103.82191c6.68875,0 12.107,5.41966 12.107,12.10559v52.70941z"/><path d="M385.19661,162.96053c0,6.68593 -5.42247,12.107 -12.107,12.107h-103.82331c-6.68593,0 -12.10559,-5.42247 -12.10559,-12.107v-52.70941c0,-6.68593 5.41966,-12.10559 12.10559,-12.10559h103.82191c6.68875,0 12.107,5.41966 12.107,12.10559v52.70941z"/><path d="M576.52077,162.96746c0,6.68593 -5.42247,12.107 -12.107,12.107h-103.82331c-6.68593,0 -12.10559,-5.42247 -12.10559,-12.107v-52.70941c0,-6.68593 5.41966,-12.10559 12.10559,-12.10559h103.82191c6.68875,0 12.107,5.41966 12.107,12.10559v52.70941z"/><path d="M511.60515,162.87483c0,6.68593 -5.42247,12.107 -12.107,12.107h-103.82331c-6.68593,0 -12.10559,-5.42247 -12.10559,-12.107v-52.70941c0,-6.68593 5.41966,-12.10559 12.10559,-12.10559h103.82191c6.68875,0 12.107,5.41966 12.107,12.10559v52.70941z"/><path d="M681.51586,162.97026c0,6.68593 -5.42247,12.107 -12.107,12.107h-103.82331c-6.68593,0 -12.10559,-5.42247 -12.10559,-12.107v-52.70941c0,-6.68593 5.41966,-12.10559 12.10559,-12.10559h103.82191c6.68875,0 12.107,5.41966 12.107,12.10559v52.70941z"/><path d="M616.60025,162.87763c0,6.68593 -5.42247,12.107 -12.107,12.107h-103.82331c-6.68593,0 -12.10559,-5.42247 -12.10559,-12.107v-52.70941c0,-6.68593 5.41966,-12.10559 12.10559,-12.10559h103.82191c6.68875,0 12.107,5.41966 12.107,12.10559v52.70941z"/><path d="M743.00879,162.79193c0,6.68593 -5.42247,12.107 -12.107,12.107h-103.82331c-6.68593,0 -12.10559,-5.42247 -12.10559,-12.107v-52.70941c0,-6.68593 5.41966,-12.10559 12.10559,-12.10559h103.82191c6.68875,0 12.107,5.41966 12.107,12.10559v52.70941z"/><path d="M450.09184,213.42868c0,6.68593 -5.42247,12.107 -12.107,12.107h-103.82331c-6.68593,0 -12.10559,-5.42247 -12.10559,-12.107v-52.70941c0,-6.68593 5.41966,-12.10559 12.10559,-12.10559h103.82191c6.68875,0 12.107,5.41966 12.107,12.10559v52.70941z"/><path d="M385.17622,213.33605c0,6.68593 -5.42247,12.107 -12.107,12.107h-103.82331c-6.68593,0 -12.10559,-5.42247 -12.10559,-12.107v-52.70941c0,-6.68593 5.41966,-12.10559 12.10559,-12.10559h103.82191c6.68875,0 12.107,5.41966 12.107,12.10559v52.70941z"/><path d="M576.50038,213.34298c0,6.68593 -5.42247,12.107 -12.107,12.107h-103.82331c-6.68593,0 -12.10559,-5.42247 -12.10559,-12.107v-52.70941c0,-6.68593 5.41966,-12.10559 12.10559,-12.10559h103.82191c6.68875,0 12.107,5.41966 12.107,12.10559v52.70941z"/><path d="M511.58476,213.25035c0,6.68593 -5.42247,12.107 -12.107,12.107h-103.82331c-6.68593,0 -12.10559,-5.42247 -12.10559,-12.107v-52.70941c0,-6.68593 5.41966,-12.10559 12.10559,-12.10559h103.82191c6.68875,0 12.107,5.41966 12.107,12.10559v52.70941z"/><path d="M681.49547,213.34578c0,6.68593 -5.42247,12.107 -12.107,12.107h-103.82331c-6.68593,0 -12.10559,-5.42247 -12.10559,-12.107v-52.70941c0,-6.68593 5.41966,-12.10559 12.10559,-12.10559h103.82191c6.68875,0 12.107,5.41966 12.107,12.10559v52.70941z"/><path d="M616.57986,213.25315c0,6.68593 -5.42247,12.107 -12.107,12.107h-103.82331c-6.68593,0 -12.10559,-5.42247 -12.10559,-12.107v-52.70941c0,-6.68593 5.41966,-12.10559 12.10559,-12.10559h103.82191c6.68875,0 12.107,5.41966 12.107,12.10559v52.70941z"/><path d="M742.9884,213.16745c0,6.68593 -5.42247,12.107 -12.107,12.107h-103.82331c-6.68593,0 -12.10559,-5.42247 -12.10559,-12.107v-52.70941c0,-6.68593 5.41966,-12.10559 12.10559,-12.10559h103.82191c6.68875,0 12.107,5.41966 12.107,12.10559v52.70941z"/></g></g></svg>