<svg version="1.1" xmlns="http://www.w3.org/2000/svg" xmlns:xlink="http://www.w3.org/1999/xlink" width="34.61512" height="48.78337" viewBox="0,0,34.61512,48.78337"><g transform="translate(-482.69244,-300.60831)"><g data-paper-data="{&quot;isPaintingLayer&quot;:true}" fill="#000000" fill-rule="nonzero" stroke="none" stroke-width="1" stroke-linecap="butt" stroke-linejoin="miter" stroke-miterlimit="10" stroke-dasharray="" stroke-dashoffset="0" style="mix-blend-mode: normal"><path d="M515.01776,300.62995l0.32029,0.02287l-0.02287,0.86175c-0.02287,0.93802 -0.0839,1.50997 -0.25929,2.37556c-0.51477,2.55476 -1.76927,4.93032 -3.59955,6.81398c-2.34124,2.40987 -5.35738,3.85884 -8.67096,4.15626c-0.24023,0.02287 -0.44231,0.04575 -0.44994,0.05719c-0.00762,0.00762 0.09533,0.02287 0.22498,0.03812c0.13346,0.01525 0.48808,0.07627 0.79312,0.13727c4.78924,0.94946 8.98743,3.90459 11.48882,8.08375c3.29833,5.51753 3.28689,12.37347 -0.03431,17.87193c-0.75119,1.24306 -1.49091,2.17726 -2.58526,3.27545c-1.43373,1.42991 -2.76831,2.39843 -4.52232,3.27164c-1.86841,0.93039 -3.77114,1.48329 -5.92171,1.72733c-0.80837,0.09152 -2.75306,0.09152 -3.56143,0c-3.42416,-0.38512 -6.39836,-1.61293 -9.08658,-3.75589c-0.67873,-0.54146 -2.00949,-1.86079 -2.54333,-2.52808c-2.47089,-3.06953 -3.78638,-6.63859 -3.88934,-10.53937c-0.15252,-5.97511 2.79499,-11.59941 7.82065,-14.90536c1.87222,-1.23162 4.18295,-2.16201 6.33355,-2.53951c0.85031,-0.15252 0.80075,-0.13346 0.49571,-0.16777c-4.50707,-0.48046 -8.24389,-3.80166 -9.22385,-8.20196c-0.15633,-0.7016 -0.21735,-1.18587 -0.24023,-1.95231l-0.02287,-0.72829l0.18683,-0.0305c0.30885,-0.04575 1.59387,0.01525 2.1277,0.09915c3.27164,0.51477 6.06663,2.46708 7.67575,5.35738c0.816,1.47185 1.30789,3.30976 1.30789,4.90745v0.44231l0.73594,-0.00762l0.7321,-0.00762l-0.01144,-0.24404c-0.01525,-0.30885 0.05719,-1.41466 0.12583,-1.94468c0.12965,-0.99139 0.39275,-2.03999 0.74356,-3.00091c0.25167,-0.67491 0.82362,-1.84172 1.20875,-2.45181c2.34887,-3.74064 6.26109,-6.13144 10.61183,-6.47844c0.51477,-0.04194 1.30408,-0.04956 1.71208,-0.01525z"/></g></g></svg>